<?xml version="1.0" encoding="utf-8"?>
<svg xmlns="http://www.w3.org/2000/svg" viewBox="0 0 500 500" xmlns:bx="https://boxy-svg.com" width="500px" height="500px"><defs><bx:export><bx:file format="svg" path="未命名.svg"/></bx:export></defs><path d="M 137 19 L 363 19 C 428.17 19 481 71.83 481 137 L 481 363 C 481 428.17 428.17 481 363 481 L 137 481 C 71.83 481 19 428.17 19 363 L 19 137 C 19 71.83 71.83 19 137 19 Z M 114.227 359.054 L 132.237 266.217 L 230.613 266.217 L 237.678 229.767 L 139.303 229.767 L 149.556 177.397 L 249.872 177.397 L 257.076 140.947 L 114.919 140.947 L 72.38 359.054 Z M 361.806 177.397 L 420.555 177.397 L 427.621 140.947 L 267.589 140.947 L 260.522 177.397 L 320.101 177.397 L 284.63 359.054 L 326.476 359.054 Z" style="stroke: rgb(0, 0, 0); stroke-width: 0.924; filter: none;"/></svg>